<svg width="62" height="38" viewBox="0 0 62 38" fill="none" xmlns="http://www.w3.org/2000/svg">
<path d="M50.7703 19.5986H45.6944C45.1298 19.5986 44.6705 19.1488 44.6705 18.5857C44.6705 18.0226 45.1299 17.5269 45.6944 17.5269H53.4221V13.7149H45.6944C42.9972 13.7149 40.8028 15.9138 40.8028 18.6042C40.8028 21.2947 42.9972 23.4935 45.6944 23.4935H50.7014C51.266 23.4935 51.7253 23.9415 51.7253 24.5046C51.7253 25.0677 51.2659 25.4824 50.7014 25.4824H39.9645C39.053 27.2226 38.1667 28.7143 36.3673 29.4601H50.7703C53.4221 29.4219 55.5913 27.1777 55.5913 24.5111C55.5913 21.8446 53.4221 19.6368 50.7703 19.5986Z" fill="#71706F"/>
<path d="M35.6821 34.5153L35.3294 36.5123C35.1531 37.5216 34.4917 37.9839 33.5952 37.9839C32.8359 37.9839 32.2481 37.489 32.4195 36.5139L32.7721 34.5154H33.316L32.9632 36.5124C32.8553 37.1348 33.1346 37.4892 33.6637 37.4892C34.2075 37.4892 34.6729 37.1657 34.7855 36.5139L35.1382 34.5154H35.6821V34.5153ZM33.5461 33.89C33.5461 34.0565 33.6736 34.1348 33.8107 34.1348C33.9822 34.1348 34.1684 34.0124 34.1684 33.7821C34.1684 33.6206 34.0604 33.5374 33.9184 33.5374C33.7423 33.5374 33.5461 33.65 33.5461 33.89ZM34.722 33.8851C34.722 34.0564 34.8542 34.1348 34.9964 34.1348C35.1482 34.1348 35.3491 34.0124 35.3491 33.7871C35.3491 33.6256 35.2314 33.5374 35.0992 33.5374C34.9229 33.5374 34.722 33.65 34.722 33.8851Z" fill="#71706F"/>
<path d="M31.3123 13.7149C27.0102 13.7149 23.5063 17.2398 23.5063 21.5709V21.7367V37.9128H27.4011V29.4601H31.3042C35.6064 29.4601 39.098 25.8884 39.098 21.5572C39.0979 17.226 35.6146 13.7149 31.3123 13.7149ZM31.3123 25.4824H27.4011V21.5572C27.4011 19.3638 29.1474 17.5793 31.3123 17.5793C33.4773 17.5793 35.2384 19.3638 35.2384 21.5572C35.2384 23.7507 33.4773 25.4824 31.3123 25.4824Z" fill="#71706F"/>
<path d="M11.1755 29.4601C7.49278 29.4601 4.39661 26.8359 3.5588 23.4076C3.5588 23.4076 3.31674 22.2741 3.31674 21.5277C3.31674 20.7813 3.54587 19.6361 3.54587 19.6361C4.38973 16.2162 7.48209 13.6697 11.1588 13.6697C15.483 13.6697 19.0313 17.1848 19.0313 21.509V23.4106H7.54267C8.22112 24.7366 9.59319 25.4824 11.1755 25.4824H21.5032L21.5174 14.2686C21.5174 12.5967 20.1496 11.2288 18.4777 11.2288H3.83981C2.16792 11.2288 0.799988 12.5552 0.799988 14.2271V28.865C0.799988 30.5369 2.16792 31.9462 3.83981 31.9462H18.4777C19.9781 31.9462 21.2297 30.8689 21.4715 29.4601H11.1755Z" fill="#C8036F"/>
<path d="M11.1587 17.3906C9.58251 17.3906 8.21177 18.3556 7.53058 19.5986H14.787C14.1058 18.3556 12.7351 17.3906 11.1587 17.3906Z" fill="#C8036F"/>
<path d="M17.7883 6.46871C17.7883 2.89613 14.8192 0 11.1568 0C7.55502 0 4.62566 2.8014 4.52945 6.29212C4.52788 6.30687 4.52912 6.32121 4.52912 6.33637V8.28033C4.52912 8.51286 4.71848 8.74274 4.95681 8.74274H7.39657C7.63491 8.74274 7.8439 8.51286 7.8439 8.28033V6.46871C7.8439 4.6847 9.32976 3.23324 11.1587 3.23324C12.9876 3.23324 14.4735 4.6847 14.4735 6.46871V8.28033C14.4735 8.51286 14.6668 8.74274 14.9051 8.74274H17.345C17.5833 8.74274 17.7883 8.51286 17.7883 8.28033V6.46871Z" fill="#C8036F"/>
<path d="M56.308 35.5096L56.078 36.8038C56.0044 37.2154 56.1907 37.4998 56.6118 37.4998C57.0086 37.4998 57.3466 37.171 57.4151 36.7694L57.6355 35.5096H58.1401L57.714 37.9129H57.2584L57.2927 37.5646C57.0085 37.8341 56.7292 37.9611 56.3914 37.9611C55.7986 37.9611 55.4459 37.5361 55.5732 36.8065L55.8035 35.5096H56.308Z" fill="#71706F"/>
<path d="M36.9963 34.5151L36.7514 35.895C36.9619 35.611 37.3832 35.4609 37.6772 35.4609C38.2846 35.4609 38.7059 35.8169 38.7059 36.478C38.7059 37.4137 38.0544 37.9764 37.2217 37.9764C36.8984 37.9764 36.6239 37.8562 36.4574 37.5526L36.3644 37.9128H35.8892L36.4917 34.5151H36.9963ZM36.6143 36.8439C36.5947 37.2456 36.8543 37.5052 37.2314 37.5052C37.7066 37.5052 38.167 37.1376 38.1965 36.5794C38.2161 36.1728 37.9516 35.9326 37.584 35.9326C37.1138 35.9326 36.6435 36.3099 36.6143 36.8439Z" fill="#71706F"/>
<path d="M39.6966 36.9184C39.6769 37.2499 39.9366 37.5205 40.3775 37.5205C40.6225 37.5205 40.9457 37.4248 41.122 37.2582L41.3964 37.5753C41.0977 37.8495 40.6567 37.9859 40.2844 37.9859C39.5889 37.9859 39.1822 37.5694 39.1822 36.9325C39.1822 36.085 39.8484 35.4534 40.7007 35.4534C41.4797 35.4534 41.9206 35.924 41.656 36.9184H39.6966ZM41.2446 36.5041C41.2838 36.0897 41.0389 35.9211 40.6322 35.9211C40.2648 35.9211 39.9269 36.0897 39.7798 36.5041H41.2446Z" fill="#71706F"/>
<path d="M43.004 35.5096L42.9794 35.8291C43.2148 35.5201 43.4989 35.4572 43.7583 35.4572C43.9934 35.4572 44.204 35.5406 44.3168 35.6629L44.0131 36.1039C43.9053 36.0062 43.7975 35.9572 43.6113 35.9572C43.2635 35.9572 42.9207 36.1658 42.8423 36.6115L42.6122 37.9128H42.1076L42.5338 35.5096H43.004Z" fill="#71706F"/>
<path d="M46.7474 35.5096L47.0021 37.4102L47.9231 35.5096H48.4864L47.2225 37.9129H46.6298L46.3899 36.3275L46.0028 37.1151L45.5815 37.9129H44.9937L44.5674 35.5096H45.1357L45.3856 37.4102L46.3114 35.5096H46.7474Z" fill="#71706F"/>
<path d="M49.1344 36.9184C49.1148 37.2499 49.3744 37.5205 49.8153 37.5205C50.0603 37.5205 50.3835 37.4248 50.5598 37.2582L50.8342 37.5753C50.5356 37.8495 50.0945 37.9859 49.7223 37.9859C49.0267 37.9859 48.62 37.5694 48.62 36.9325C48.62 36.085 49.2862 35.4534 50.1386 35.4534C50.9175 35.4534 51.3584 35.924 51.0938 36.9184H49.1344ZM50.6823 36.5041C50.7215 36.0897 50.4766 35.9211 50.0699 35.9211C49.7026 35.9211 49.3646 36.0897 49.2175 36.5041H50.6823Z" fill="#71706F"/>
<path d="M52.4762 35.5096L52.0501 37.9128H51.5454L51.9717 35.5096H52.4762ZM52.0304 34.8549C52.0304 35.0263 52.1579 35.1149 52.295 35.1149C52.4909 35.1149 52.6723 34.9873 52.6723 34.7474C52.6723 34.5855 52.5497 34.4924 52.4175 34.4924C52.2361 34.4924 52.0304 34.6101 52.0304 34.8549Z" fill="#71706F"/>
<path d="M54.7153 36.1041C54.5585 35.9278 54.3578 35.8788 54.1178 35.8788C53.7845 35.8788 53.5494 35.9915 53.5494 36.2021C53.5494 36.3784 53.7405 36.4522 54.0246 36.4766C54.4655 36.5157 55.0288 36.6628 54.9112 37.2849C54.828 37.7355 54.3773 38 53.7502 38C53.3583 38 52.9811 37.9118 52.7264 37.5543L53.0545 37.1967C53.2358 37.4464 53.5542 37.5494 53.8383 37.5543C54.0783 37.5543 54.3626 37.4661 54.4066 37.2408C54.4506 37.0252 54.2596 36.942 53.9069 36.9076C53.4954 36.8684 53.0448 36.7167 53.0448 36.261C53.0448 35.6585 53.6962 35.4478 54.1862 35.4478C54.5584 35.4478 54.8328 35.531 55.0582 35.7711L54.7153 36.1041Z" fill="#71706F"/>
<path d="M60.3554 37.9128L60.5857 36.6265C60.6591 36.2101 60.5172 35.9342 60.0566 35.9342C59.6549 35.9342 59.3168 36.2573 59.2483 36.6541L59.0279 37.9128H58.5234L58.9497 35.5096H59.4101L59.3758 35.8608C59.6551 35.6011 59.944 35.473 60.2574 35.473C60.8454 35.473 61.2276 35.8821 61.0954 36.6218L60.8649 37.9128H60.3554Z" fill="#71706F"/>
</svg>
