<svg width="62" height="30" viewBox="0 0 62 30" fill="none" xmlns="http://www.w3.org/2000/svg">
<g clip-path="url(#clip0_671_867)">
<path d="M2.40189 26.1665L2.2984 26.9772C2.28756 27.0641 2.29405 27.1524 2.3175 27.2369C2.34094 27.3213 2.38088 27.4003 2.43499 27.4692C2.48911 27.5382 2.55634 27.5957 2.63282 27.6386C2.70929 27.6814 2.79348 27.7087 2.88054 27.7189H29.2324C29.3208 27.72 29.4085 27.7037 29.4905 27.671C29.5726 27.6382 29.6474 27.5896 29.7106 27.5279C29.7739 27.4663 29.8244 27.3927 29.8593 27.3116C29.8941 27.2304 29.9126 27.1431 29.9137 27.0548C29.916 27.0275 29.916 27.0001 29.9137 26.9728L29.8059 26.1621C29.7758 25.8588 29.8667 25.5557 30.0589 25.3191C30.2511 25.0824 30.5291 24.9313 30.8322 24.8987C30.9809 24.8825 31.1313 24.8958 31.2748 24.9378C31.4183 24.9797 31.5522 25.0495 31.6687 25.1432C31.7852 25.237 31.8822 25.3527 31.954 25.4839C32.0257 25.615 32.071 25.7591 32.0871 25.9077L32.1906 26.6969C32.3933 28.4519 31.3971 29.9957 29.6033 29.9957H2.59163C0.814997 29.9957 -0.176809 28.4519 0.0258642 26.6969L0.129357 25.9077C0.144431 25.7598 0.188542 25.6164 0.25916 25.4856C0.329779 25.3548 0.425517 25.2392 0.540888 25.1454C0.65626 25.0517 0.788996 24.9817 0.931489 24.9393C1.07398 24.897 1.22343 24.8832 1.37127 24.8987C1.67477 24.9324 1.95275 25.0844 2.14489 25.3217C2.33702 25.5591 2.42782 25.8626 2.39758 26.1665" fill="#FF0000"/>
<path d="M26.6796 20.0733C27.2495 20.1039 27.8083 19.9073 28.2335 19.5266C28.6587 19.1458 28.9155 18.6121 28.9478 18.0423C28.9499 18.0049 28.9499 17.9675 28.9478 17.9301C28.922 16.6753 27.7792 15.8646 26.5071 15.8603H23.9327C23.6468 15.8603 23.3726 15.7467 23.1704 15.5445C22.9683 15.3424 22.8547 15.0682 22.8547 14.7822C22.8547 14.4963 22.9683 14.2221 23.1704 14.0199C23.3726 13.8178 23.6468 13.7042 23.9327 13.7042H25.6576C26.8176 13.6567 27.7102 12.9539 27.7663 11.8629C27.8223 10.6856 26.8133 9.80595 25.5843 9.80595H21.4101V20.0561H26.6796M29.8405 11.8629C29.8423 12.3127 29.7544 12.7583 29.5819 13.1737C29.4094 13.5891 29.1557 13.9659 28.8357 14.282L28.771 14.3553L28.8573 14.4071C29.4879 14.7577 30.0176 15.2648 30.3952 15.8797C30.7729 16.4945 30.9858 17.1962 31.0134 17.9172C31.0284 19.0558 30.5925 20.154 29.8008 20.9724C29.0091 21.7908 27.9258 22.2628 26.7874 22.2855H20.3191C20.0198 22.2809 19.7345 22.1583 19.5253 21.9442C19.316 21.7301 19.1999 21.442 19.2023 21.1427V8.84002C19.1999 8.68911 19.2279 8.53927 19.2844 8.39934C19.341 8.25941 19.425 8.13223 19.5315 8.02531C19.638 7.91839 19.7649 7.8339 19.9046 7.77682C20.0443 7.71973 20.1941 7.69123 20.345 7.69297H25.5843C26.682 7.66281 27.7469 8.06958 28.5449 8.82394C29.3429 9.57831 29.8089 10.6186 29.8405 11.7163V11.8586" fill="#1D1D1B"/>
<path d="M9.38336 18.0768L9.41355 18.163L9.44374 18.0768C9.73697 17.2661 10.0949 16.3519 10.47 15.3903C10.8452 14.4286 11.2462 13.3765 11.63 12.4364C12.0138 11.4963 12.389 10.6339 12.7426 9.89221C12.9753 9.34483 13.2644 8.82313 13.605 8.3355C13.771 8.1294 13.9822 7.96425 14.2222 7.85283C14.4622 7.74142 14.7247 7.68672 14.9892 7.69298H15.2523C15.5513 7.68052 15.845 7.77534 16.0802 7.96034C16.2608 8.11009 16.3779 8.32274 16.4079 8.55543L18.0509 21.2764C18.0576 21.4172 18.0362 21.558 17.9881 21.6905C17.94 21.823 17.8661 21.9446 17.7706 22.0483C17.5482 22.2345 17.2622 22.3272 16.9728 22.307C16.6774 22.3236 16.3851 22.2384 16.1449 22.0656C16.0388 21.9931 15.9495 21.8985 15.8833 21.7884C15.817 21.6782 15.7754 21.5551 15.7611 21.4274C15.7051 20.9961 15.6576 20.5347 15.6059 20.0173C15.5541 19.4998 15.2781 17.2876 15.2048 16.7227C15.1315 16.1578 14.6788 12.5572 14.5192 11.2506V11.1384L13.9931 12.2424C13.8163 12.6218 13.6223 13.0746 13.411 13.605C13.1997 14.1354 12.9797 14.696 12.7771 15.2911C12.5744 15.8862 11.5308 18.7667 11.5308 18.7667C11.436 19.0298 11.2549 19.5602 11.0996 20.0604C10.9444 20.5606 10.7848 20.9875 10.746 21.0694C10.5681 21.4176 10.2592 21.6809 9.88723 21.8014C9.51526 21.9218 9.11067 21.8897 8.76241 21.712C8.47893 21.5705 8.24785 21.3424 8.10264 21.0608C8.05952 20.9789 7.9129 20.539 7.74473 20.0518C7.57655 19.5645 7.41269 19.0384 7.31351 18.7581C7.31351 18.7581 6.30014 15.8517 6.07159 15.2825C5.84305 14.7133 5.64037 14.1311 5.4377 13.5964C5.23502 13.0617 5.02804 12.6132 4.85555 12.2337L4.32515 11.1427V11.2549C4.1656 12.5485 3.70851 16.1535 3.6352 16.7271C3.56189 17.3006 3.29453 19.4912 3.23416 20.0043C3.17379 20.5175 3.12636 20.9918 3.07461 21.4144C3.06036 21.5422 3.01869 21.6653 2.95245 21.7755C2.88622 21.8856 2.79697 21.9801 2.69082 22.0526C2.45176 22.2245 2.16122 22.3097 1.86719 22.2941C1.58056 22.3134 1.29763 22.2206 1.07806 22.0354C0.982586 21.9317 0.908648 21.81 0.860534 21.6775C0.812419 21.545 0.791085 21.4043 0.797767 21.2635L2.41916 8.55543C2.45678 8.33157 2.57485 8.12915 2.7512 7.98621C2.98225 7.79088 3.27665 7.68661 3.57914 7.69298H3.84218C4.10424 7.6865 4.36433 7.73983 4.60268 7.84892C4.84104 7.95801 5.0514 8.12 5.21778 8.32257C5.55999 8.8092 5.84911 9.33108 6.08022 9.87927C6.43382 10.621 6.80467 11.469 7.19277 12.4235C7.58086 13.3779 7.96896 14.3625 8.35706 15.3773C8.73222 16.3519 9.08582 17.2531 9.37905 18.0638" fill="#1D1D1B"/>
<path d="M6.16647 -2.85357e-06H26.1147C27.9948 -2.85357e-06 28.9306 1.41009 29.1333 3.27296L29.2195 3.86804C29.2535 4.17609 29.1642 4.48506 28.971 4.72746C28.7779 4.96985 28.4967 5.12597 28.1889 5.16171C27.8868 5.18565 27.5874 5.08952 27.3557 4.89416C27.124 4.6988 26.9787 4.41997 26.9513 4.11815L26.865 3.54463C26.7831 2.83743 26.4856 2.28978 25.7654 2.28978H6.52007C5.79993 2.28978 5.50239 2.83743 5.41614 3.54463L5.33852 4.10953C5.31114 4.41182 5.16506 4.69094 4.93228 4.88573C4.69949 5.08052 4.399 5.17511 4.09661 5.14877C3.94395 5.13162 3.79616 5.08453 3.66171 5.01021C3.52726 4.93589 3.40879 4.83579 3.31307 4.71563C3.21734 4.59548 3.14625 4.45763 3.10385 4.30997C3.06146 4.16231 3.04859 4.00774 3.06599 3.85511L3.14792 3.26002C3.37216 1.40146 4.30359 -0.0129395 6.16647 -0.0129395" fill="#FF0000"/>
<path d="M42.044 13.411C41.906 13.9414 41.7637 14.5106 41.6128 15.1358C41.4618 15.7611 41.3109 16.3217 41.1816 16.8607C41.0522 17.3997 40.9013 17.8913 40.7503 18.3096C40.6697 18.6072 40.5599 18.896 40.4226 19.1721C40.3381 19.3089 40.217 19.4194 40.0729 19.491C39.9289 19.5626 39.7677 19.5926 39.6076 19.5774C39.4617 19.5738 39.3169 19.552 39.1764 19.5127C39.0826 19.4844 38.9958 19.4367 38.9216 19.3729C38.8473 19.309 38.7872 19.2303 38.7452 19.1419C38.6086 18.8536 38.4989 18.5533 38.4174 18.2449C38.2881 17.8137 38.1501 17.2876 37.9862 16.7055C37.8223 16.1233 37.6973 15.511 37.555 14.8599C37.4127 14.2087 37.2747 13.605 37.1626 13.0487C37.0505 12.4925 36.947 12.0138 36.8693 11.6257C36.7917 11.2376 36.7486 11.0004 36.7357 10.9185C36.7333 10.8855 36.7333 10.8523 36.7357 10.8193V10.7633C36.7333 10.6862 36.7493 10.6096 36.7823 10.5399C36.8152 10.4702 36.8643 10.4093 36.9254 10.3622C37.0575 10.2577 37.2228 10.2042 37.3911 10.2113C37.5428 10.2047 37.6931 10.2437 37.8223 10.3234C37.9467 10.4164 38.0302 10.5539 38.0552 10.7072C38.0552 10.7072 38.0811 10.8668 38.1328 11.1384C38.1846 11.4101 38.2579 11.7335 38.3398 12.1345C38.4217 12.5356 38.5166 12.997 38.6158 13.5015C38.715 14.006 38.8228 14.5192 38.9392 15.0367C39.0556 15.5541 39.1634 16.05 39.2756 16.5373C39.3877 17.0246 39.4869 17.4386 39.586 17.7878C39.6809 17.4601 39.7887 17.085 39.9051 16.6624C40.0216 16.2398 40.1423 15.7999 40.2587 15.3687C40.3752 14.9375 40.483 14.4674 40.5908 14.019C40.6986 13.5705 40.7978 13.1565 40.8926 12.7598C40.9875 12.3631 41.0608 12.031 41.1298 11.7292C41.1988 11.4273 41.2505 11.2074 41.2894 11.0608C41.3329 10.8913 41.4296 10.7402 41.5653 10.6296C41.6971 10.51 41.8663 10.4399 42.044 10.4312C42.2338 10.4225 42.4205 10.4821 42.5701 10.5994C42.7042 10.7084 42.7958 10.861 42.8288 11.0306C42.9452 11.5006 43.0574 12.0354 43.1824 12.6218C43.3075 13.2083 43.4411 13.7991 43.5748 14.3984C43.7085 14.9978 43.8551 15.5886 44.006 16.1665C44.157 16.7443 44.295 17.2531 44.4373 17.6973C44.5321 17.348 44.6399 16.934 44.7521 16.4511C44.8642 15.9681 44.972 15.4679 45.0884 14.9504C45.2048 14.4329 45.3213 13.9327 45.4248 13.4282C45.5283 12.9237 45.6317 12.4709 45.718 12.0699C45.8042 11.6688 45.8775 11.3411 45.925 11.091C45.9724 10.8409 46.0069 10.7029 46.0069 10.6943C46.0368 10.5441 46.1194 10.4095 46.2398 10.3148C46.3686 10.2341 46.5192 10.195 46.671 10.2027C46.8405 10.1968 47.0067 10.2501 47.141 10.3536C47.2014 10.4014 47.2499 10.4624 47.2828 10.5319C47.3157 10.6015 47.3321 10.6777 47.3308 10.7546V10.8107C47.3328 10.8452 47.3328 10.8797 47.3308 10.9142C47.3308 10.9918 47.2747 11.2247 47.1928 11.6214C47.1108 12.0181 47.0117 12.4838 46.8952 13.0401C46.7788 13.5964 46.6451 14.2001 46.5028 14.8426C46.3605 15.4851 46.2096 16.0975 46.0716 16.6796C45.9336 17.2618 45.7956 17.7749 45.6404 18.2147C45.5595 18.5206 45.4498 18.818 45.3126 19.1031C45.2256 19.2841 45.0706 19.4236 44.8814 19.4912C44.7423 19.5382 44.597 19.5643 44.4502 19.5688C44.3913 19.5731 44.3323 19.5731 44.2734 19.5688C44.1887 19.5567 44.105 19.538 44.0233 19.5127C43.9307 19.4797 43.8435 19.4332 43.7646 19.3747C43.6741 19.3081 43.6028 19.2189 43.5576 19.116C43.4316 18.8194 43.3278 18.5138 43.2471 18.2018C43.122 17.7706 42.9927 17.2962 42.8504 16.7615C42.7081 16.2268 42.5744 15.6576 42.4192 15.0712C42.2639 14.4847 42.1561 13.937 42.0397 13.4282" fill="#1D1D1B"/>
<path d="M49.6723 16.8779C49.5257 17.3437 49.3963 17.7749 49.2885 18.1716C49.1807 18.5683 49.0686 18.8917 48.9737 19.1462C48.9508 19.3177 48.8607 19.4732 48.7233 19.5783C48.5858 19.6834 48.4122 19.7296 48.2406 19.7068C48.0691 19.6839 47.9136 19.5938 47.8085 19.4563C47.7034 19.3188 47.6572 19.1452 47.68 18.9737C47.6792 18.9092 47.6894 18.845 47.7102 18.7839L47.8913 18.1845C47.9948 17.8482 48.1285 17.4299 48.2924 16.9211C48.4562 16.4122 48.6417 15.8689 48.84 15.2695C49.0384 14.6701 49.2454 14.075 49.4567 13.4886C49.668 12.9021 49.8879 12.3544 50.0863 11.8499C50.2519 11.426 50.4464 11.0139 50.6684 10.6166C50.7313 10.4726 50.8427 10.3551 50.9832 10.2846C51.1537 10.2198 51.3357 10.1904 51.5179 10.1983C51.7053 10.1945 51.8915 10.2282 52.0656 10.2975C52.1379 10.3322 52.2027 10.3809 52.256 10.4409C52.3093 10.5009 52.3501 10.5709 52.376 10.6468C52.514 10.9357 52.6779 11.3281 52.8633 11.8154C53.0487 12.3027 53.2557 12.8331 53.4627 13.4023C53.6697 13.9715 53.8939 14.5494 54.0837 15.1272C54.2734 15.705 54.4761 16.2656 54.6443 16.7745C54.8124 17.2833 54.959 17.7188 55.0755 18.0681C55.1919 18.4174 55.2738 18.6589 55.2997 18.7667C55.3205 18.8278 55.3307 18.8919 55.3299 18.9564C55.3343 19.0369 55.3207 19.1174 55.2901 19.192C55.2595 19.2665 55.2127 19.3334 55.1531 19.3877C55.0848 19.4485 55.0049 19.4948 54.9182 19.5237C54.8314 19.5526 54.7397 19.5636 54.6486 19.5558C54.5144 19.5685 54.3804 19.5299 54.2734 19.448C54.1829 19.3631 54.116 19.2561 54.0794 19.1375C53.9802 18.8831 53.8681 18.5597 53.7344 18.163C53.6007 17.7663 53.4627 17.335 53.3032 16.8693H49.6593M52.8935 15.6058C52.6865 14.9763 52.4968 14.3984 52.3113 13.881C52.1259 13.3635 51.9621 12.8676 51.7551 12.376C51.7076 12.2682 51.6559 12.1475 51.6041 12.0008C51.5524 11.8542 51.5179 11.7809 51.5093 11.7551C51.4689 11.8288 51.437 11.9069 51.4144 11.9879C51.3584 12.1431 51.3109 12.2682 51.2592 12.376C51.0651 12.8504 50.8797 13.3506 50.6986 13.881C50.5175 14.4114 50.3277 14.9849 50.1251 15.6058H52.8935Z" fill="#1D1D1B"/>
<path d="M57.8482 15.9077C57.7976 15.8571 57.7515 15.8023 57.7102 15.7438L57.5679 15.5455C57.4299 15.3514 57.2876 15.1143 57.1367 14.8383C56.9858 14.5623 56.8133 14.2691 56.6537 13.9758C56.4942 13.6826 56.3389 13.3506 56.1923 13.0358C56.0457 12.721 55.8991 12.4278 55.7827 12.1733C55.6662 11.9189 55.5541 11.6645 55.4679 11.4661C55.4031 11.327 55.3497 11.1828 55.3083 11.0349C55.2916 10.999 55.2786 10.9614 55.2695 10.9228C55.2695 10.9228 55.2695 10.8667 55.2695 10.815C55.269 10.7346 55.2848 10.655 55.3159 10.5808C55.3471 10.5067 55.3929 10.4397 55.4506 10.3838C55.5185 10.3218 55.5981 10.2742 55.6848 10.2438C55.7715 10.2134 55.8635 10.2009 55.9552 10.207C56.0334 10.1982 56.1126 10.2067 56.1872 10.2321C56.2617 10.2574 56.3297 10.2989 56.3864 10.3536C56.4622 10.4385 56.522 10.5364 56.5632 10.6425L56.7055 10.9616C56.7788 11.1255 56.8693 11.3281 56.9728 11.5696C57.0763 11.8111 57.2014 12.0785 57.3394 12.3717C57.4774 12.6649 57.611 12.9452 57.7706 13.2341L58.1802 14.0405C58.2913 14.2575 58.4152 14.4678 58.5511 14.6701C58.771 14.3268 58.9711 13.9711 59.1505 13.605C59.3618 13.1738 59.5817 12.7641 59.7585 12.3458C59.9353 11.9275 60.1207 11.561 60.2674 11.2462L60.5218 10.6468C60.5645 10.5405 60.6258 10.4427 60.7029 10.3579C60.758 10.3011 60.8259 10.2582 60.9008 10.2327C60.9758 10.2072 61.0558 10.1999 61.1341 10.2113C61.2258 10.2047 61.3179 10.217 61.4047 10.2474C61.4915 10.2778 61.5711 10.3257 61.6386 10.3881C61.6979 10.4429 61.7447 10.5097 61.7759 10.5841C61.8072 10.6585 61.8221 10.7387 61.8197 10.8193C61.8243 10.8551 61.8243 10.8913 61.8197 10.9271L61.7853 11.0392L61.6171 11.4705C61.5351 11.6731 61.4317 11.9017 61.3066 12.1777C61.1815 12.4536 61.0522 12.7426 60.9056 13.0401C60.759 13.3376 60.5951 13.6654 60.4355 13.9802C60.276 14.2949 60.1164 14.5839 59.9569 14.8426C59.7973 15.1013 59.6464 15.3644 59.5257 15.5541C59.443 15.6748 59.3492 15.7874 59.2454 15.8905V18.909C59.2496 18.9969 59.2357 19.0848 59.2045 19.1671C59.1734 19.2495 59.1256 19.3245 59.0643 19.3877C58.9408 19.5096 58.7742 19.578 58.6007 19.578C58.4272 19.578 58.2606 19.5096 58.1371 19.3877C58.071 19.3234 58.0188 19.2462 57.9839 19.1609C57.9491 19.0756 57.9322 18.9839 57.9345 18.8918V15.8732" fill="#1D1D1B"/>
</g>
<defs>
<clipPath id="clip0_671_867">
<rect width="61.7508" height="30" fill="white"/>
</clipPath>
</defs>
</svg>
