<svg width="34" height="40" viewBox="0 0 34 40" fill="none" xmlns="http://www.w3.org/2000/svg">
<g clip-path="url(#clip0_669_582)">
<path fill-rule="evenodd" clip-rule="evenodd" d="M16.7583 32.2344H30.6268C33.7915 32.2344 33.8245 28.8696 33.5012 27.2091C33.3253 26.0919 31.4273 26.1095 31.2184 27.2091V28.5045C31.2178 28.7901 31.1041 29.0639 30.9021 29.2659C30.7002 29.4678 30.4264 29.5816 30.1408 29.5821H3.5562C3.27057 29.5816 2.99681 29.4678 2.79484 29.2659C2.59287 29.0639 2.47915 28.7901 2.47857 28.5045V27.2091C2.26964 26.1095 0.371685 26.0919 0.195745 27.2091C-0.127545 28.8696 -0.0945567 32.2344 3.07017 32.2344H16.7583ZM6.95625 -0.00219727H28.3374C29.8395 -0.00219727 31.0688 1.29976 31.0688 2.88982V4.27095C31.0688 6.22389 28.4297 6.21509 28.4297 4.28414V3.532C28.4297 3.29869 28.3371 3.07493 28.1721 2.90996C28.0071 2.74498 27.7834 2.6523 27.55 2.6523H6.12493C5.89162 2.6523 5.66786 2.74498 5.50289 2.90996C5.33791 3.07493 5.24523 3.29869 5.24523 3.532V4.27095C5.24523 6.21289 2.72488 6.19969 2.72488 4.31274V2.89202C2.73148 1.30196 3.95867 -0.00219727 5.46075 -0.00219727H6.95625Z" fill="#3D73B9"/>
<path fill-rule="evenodd" clip-rule="evenodd" d="M30.53 15.8786C31.2642 16.2065 31.8896 16.7369 32.3329 17.4077C32.7762 18.0785 33.019 18.8618 33.0328 19.6657C33.0328 21.9925 31.0007 23.8971 28.5177 23.8971H21.5527C21.2505 23.906 20.957 23.7957 20.7356 23.5899C20.5142 23.3841 20.3826 23.0995 20.3695 22.7975V9.54037C20.3706 9.23237 20.4937 8.93736 20.7116 8.71978C20.9296 8.5022 21.2249 8.37974 21.5329 8.37916H27.3323C28.2018 8.37714 29.0527 8.63124 29.7788 9.10974C30.5048 9.58824 31.0739 10.27 31.4149 11.0698C31.756 11.8697 31.8539 12.7523 31.6966 13.6075C31.5392 14.4627 31.1335 15.2526 30.53 15.8786ZM25.3332 14.801H27.5434V14.7768C28.0395 14.6989 28.4916 14.4471 28.8188 14.0663C29.146 13.6854 29.3269 13.2006 29.3292 12.6985C29.3275 12.1414 29.1054 11.6077 28.7115 11.2137C28.3176 10.8198 27.7838 10.5977 27.2267 10.596H22.7733V21.5923H28.4187C28.7098 21.6015 28.9997 21.5522 29.2712 21.4472C29.5428 21.3423 29.7905 21.1838 29.9997 20.9812C30.2088 20.7786 30.3751 20.5361 30.4886 20.268C30.6022 19.9999 30.6607 19.7117 30.6607 19.4205C30.6607 19.1293 30.6022 18.8412 30.4886 18.573C30.3751 18.3049 30.2088 18.0624 29.9997 17.8598C29.7905 17.6572 29.5428 17.4988 29.2712 17.3938C28.9997 17.2888 28.7098 17.2395 28.4187 17.2487H27.539H25.3332C25.1729 17.2487 25.0142 17.2172 24.8661 17.1558C24.718 17.0945 24.5834 17.0046 24.4701 16.8912C24.3568 16.7779 24.2669 16.6433 24.2055 16.4953C24.1442 16.3472 24.1126 16.1885 24.1126 16.0282C24.1126 15.8679 24.1442 15.7092 24.2055 15.5611C24.2669 15.413 24.3568 15.2784 24.4701 15.1651C24.5834 15.0517 24.718 14.9618 24.8661 14.9005C25.0142 14.8391 25.1729 14.8076 25.3332 14.8076" fill="#1D1D1B"/>
<path d="M7.83814 36.303C7.83814 36.2039 7.87753 36.1088 7.94764 36.0387C8.01776 35.9686 8.11285 35.9292 8.21201 35.9292C8.31117 35.9292 8.40626 35.9686 8.47638 36.0387C8.54649 36.1088 8.58588 36.2039 8.58588 36.303V38.322C8.5853 38.7659 8.40886 39.1914 8.09518 39.5055C7.7815 39.8196 7.35615 39.9966 6.91225 39.9978C6.46835 39.9972 6.04277 39.8208 5.72868 39.5071C5.41459 39.1934 5.23758 38.7681 5.23642 38.3242V36.3052C5.23247 36.2539 5.23918 36.2023 5.25612 36.1536C5.27307 36.105 5.29988 36.0603 5.33488 36.0225C5.36988 35.9848 5.41232 35.9546 5.45952 35.934C5.50673 35.9134 5.55768 35.9027 5.60919 35.9027C5.66071 35.9027 5.71166 35.9134 5.75887 35.934C5.80607 35.9546 5.8485 35.9848 5.88351 36.0225C5.91851 36.0603 5.94532 36.105 5.96226 36.1536C5.97921 36.2023 5.98592 36.2539 5.98197 36.3052V38.3242C5.98427 38.5705 6.08332 38.8062 6.25776 38.9802C6.4322 39.1542 6.66805 39.2527 6.91445 39.2544C7.1612 39.2533 7.39748 39.1546 7.57175 38.9799C7.74603 38.8052 7.84416 38.5687 7.84473 38.322L7.83814 36.303Z" fill="#1D1D1B"/>
<path d="M11.3745 39.2523C11.4737 39.2523 11.5688 39.2917 11.6389 39.3618C11.709 39.4319 11.7484 39.527 11.7484 39.6261C11.7484 39.7253 11.709 39.8204 11.6389 39.8905C11.5688 39.9606 11.4737 40 11.3745 40H10.3365C9.96492 40 9.60859 39.8524 9.34587 39.5897C9.08314 39.327 8.93555 38.9706 8.93555 38.5991V36.3031C8.93555 36.2045 8.97471 36.11 9.04441 36.0403C9.11411 35.9706 9.20865 35.9314 9.30722 35.9314C9.40579 35.9314 9.50033 35.9706 9.57003 36.0403C9.63974 36.11 9.67889 36.2045 9.67889 36.3031V38.5947C9.67889 38.7697 9.74841 38.9375 9.87214 39.0612C9.99587 39.185 10.1637 39.2545 10.3387 39.2545H11.3745V39.2523Z" fill="#1D1D1B"/>
<path d="M19.2633 22.5753C19.2902 22.7615 19.2793 22.9513 19.2311 23.1332C19.183 23.3151 19.0987 23.4854 18.9832 23.6339C18.8677 23.7825 18.7235 23.9062 18.5591 23.9977C18.3947 24.0892 18.2135 24.1466 18.0264 24.1664C17.8393 24.1862 17.6501 24.1681 17.4702 24.1131C17.2902 24.0581 17.1232 23.9674 16.9792 23.8464C16.8351 23.7254 16.7169 23.5765 16.6318 23.4087C16.5466 23.241 16.4961 23.0577 16.4834 22.87L15.3332 12.3334L11.2844 22.6369V22.6633V22.6853V22.7073V22.7205V22.7403V22.7623C11.1956 22.9176 11.0767 23.0537 10.9347 23.1625L10.9127 23.1801C10.8391 23.2466 10.7579 23.3042 10.6708 23.3517L10.6444 23.3649L10.6202 23.378H10.6048H10.5872H10.5718H10.5542H10.541H10.5256H10.5124H10.4992H10.4816C10.3502 23.425 10.2121 23.451 10.0726 23.455H9.97141C9.81457 23.4505 9.65973 23.4185 9.51397 23.3605H9.49417H9.47438H9.45679H9.44359H9.426H9.4106H9.39961L9.37541 23.3473L9.35342 23.3341H9.34023C9.26216 23.2924 9.18849 23.2431 9.1203 23.1867L9.07412 23.1449L9.03893 23.1119L8.95536 23.0899L8.91357 23.0438C8.85721 22.9756 8.80784 22.9019 8.76622 22.8238V22.8106L8.75303 22.7886L8.73983 22.7645V22.7491V22.7315V22.7183V22.6985V22.6809V22.6611L4.61623 12.3334L3.47042 22.87C3.43134 23.2384 3.24754 23.5761 2.95945 23.8089C2.67136 24.0417 2.30258 24.1506 1.93424 24.1115C1.5659 24.0724 1.22817 23.8886 0.995353 23.6005C0.76253 23.3124 0.653687 22.9437 0.692766 22.5753L2.04311 10.1539C2.07571 9.86141 2.16379 9.57777 2.30262 9.31823C2.47589 8.99395 2.7238 8.71554 3.0259 8.50598C3.32799 8.29643 3.67561 8.16174 4.04003 8.11304H4.1148C4.23267 8.10428 4.35102 8.10428 4.46888 8.11304C4.61113 8.11869 4.75251 8.13784 4.89114 8.17022C5.25595 8.25376 5.59478 8.4253 5.87807 8.66987C6.16136 8.91445 6.38051 9.22462 6.51639 9.57334L9.97801 18.322L13.433 9.54475C13.5955 9.12871 13.8757 8.76903 14.2393 8.50968C14.6029 8.25034 15.0343 8.10257 15.4805 8.08445C15.5984 8.07569 15.7168 8.07569 15.8346 8.08445H15.9094C16.2737 8.13349 16.6212 8.26832 16.9232 8.47784C17.2253 8.68736 17.4732 8.96558 17.6468 9.28964C17.7142 9.41966 17.7709 9.555 17.8161 9.6943C17.8606 9.83759 17.8908 9.98492 17.9063 10.1341L19.2633 22.5753Z" fill="#1D1D1B"/>
<path d="M5.09128 39.5844C5.10037 39.6346 5.0991 39.6861 5.08753 39.7358C5.07596 39.7855 5.05434 39.8323 5.02401 39.8733C4.99367 39.9143 4.95526 39.9487 4.91114 39.9743C4.86702 40 4.81812 40.0163 4.76746 40.0223C4.71679 40.0283 4.66543 40.0239 4.61654 40.0093C4.56765 39.9947 4.52226 39.9703 4.48316 39.9375C4.44407 39.9047 4.4121 39.8643 4.38922 39.8187C4.36634 39.7731 4.35304 39.7233 4.35013 39.6723L4.03124 36.9827L2.88982 39.6218C2.85064 39.7127 2.77701 39.7843 2.68507 39.821C2.59313 39.8577 2.4904 39.8564 2.39939 39.8175C2.31194 39.7798 2.24255 39.7096 2.20586 39.6218L1.06444 36.9827L0.743353 39.6723C0.740445 39.7233 0.727141 39.7731 0.704262 39.8187C0.681382 39.8643 0.649411 39.9047 0.610316 39.9375C0.571222 39.9703 0.525831 39.9947 0.476938 40.0093C0.428046 40.0239 0.376686 40.0283 0.326021 40.0223C0.275357 40.0163 0.226459 40 0.182338 39.9743C0.138217 39.9487 0.0998076 39.9143 0.0694733 39.8733C0.039139 39.8323 0.0175222 39.7855 0.00595358 39.7358C-0.00561502 39.6861 -0.00689055 39.6346 0.00220548 39.5844L0.378278 36.4614C0.390347 36.363 0.426588 36.2692 0.483767 36.1882C0.540946 36.1072 0.617284 36.0417 0.705966 35.9974C0.729335 35.9847 0.753589 35.9736 0.778541 35.9644H0.807132C0.842709 35.952 0.879617 35.9439 0.917094 35.9402C1.01077 35.9272 1.10618 35.9352 1.19635 35.9638C1.28652 35.9923 1.36918 36.0406 1.43832 36.1051C1.46606 36.1312 1.49112 36.1599 1.51309 36.1909C1.52932 36.2134 1.54401 36.2369 1.55708 36.2613C1.56526 36.2748 1.57261 36.2887 1.57907 36.3031L2.54674 38.5463L3.51441 36.2855C3.55417 36.1957 3.61484 36.1167 3.69136 36.0551C3.76788 35.9935 3.85802 35.9511 3.95426 35.9314C3.99056 35.924 4.02728 35.9188 4.06422 35.916H4.17859C4.27378 35.9267 4.36527 35.9591 4.44607 36.0105C4.52687 36.062 4.59485 36.1312 4.64483 36.2129C4.66566 36.2468 4.68263 36.283 4.69541 36.3207C4.7046 36.3441 4.71123 36.3684 4.7152 36.3933C4.71625 36.4094 4.71625 36.4255 4.7152 36.4416L5.09128 39.5844Z" fill="#1D1D1B"/>
<path d="M13.002 39.6261C13.002 39.7253 12.9626 39.8204 12.8925 39.8905C12.8224 39.9606 12.7273 40 12.6281 40C12.5289 40 12.4338 39.9606 12.3637 39.8905C12.2936 39.8204 12.2542 39.7253 12.2542 39.6261V36.6769H11.192C11.0928 36.6769 10.9977 36.6376 10.9276 36.5674C10.8575 36.4973 10.8181 36.4022 10.8181 36.3031C10.8181 36.2039 10.8575 36.1088 10.9276 36.0387C10.9977 35.9686 11.0928 35.9292 11.192 35.9292H14.0642C14.1634 35.9292 14.2585 35.9686 14.3286 36.0387C14.3987 36.1088 14.4381 36.2039 14.4381 36.3031C14.4381 36.4022 14.3987 36.4973 14.3286 36.5674C14.2585 36.6376 14.1634 36.6769 14.0642 36.6769H13.002V39.6261Z" fill="#1D1D1B"/>
<path d="M15.3332 39.6261C15.3332 39.7253 15.2938 39.8204 15.2237 39.8905C15.1536 39.9606 15.0585 40 14.9593 40C14.8602 40 14.7651 39.9606 14.695 39.8905C14.6248 39.8204 14.5854 39.7253 14.5854 39.6261V36.3031C14.5854 36.2039 14.6248 36.1088 14.695 36.0387C14.7651 35.9686 14.8602 35.9292 14.9593 35.9292C15.0585 35.9292 15.1536 35.9686 15.2237 36.0387C15.2938 36.1088 15.3332 36.2039 15.3332 36.3031V39.6261Z" fill="#1D1D1B"/>
<path d="M22.9888 39.5843C22.9951 39.6797 22.9646 39.7739 22.9036 39.8475C22.8426 39.9211 22.7558 39.9686 22.6609 39.9801C22.566 39.9917 22.4703 39.9664 22.3934 39.9096C22.3165 39.8528 22.2644 39.7686 22.2476 39.6745L22.1157 38.6189H20.8313C20.7799 38.6228 20.7283 38.6161 20.6797 38.5992C20.631 38.5822 20.5864 38.5554 20.5486 38.5204C20.5108 38.4854 20.4807 38.443 20.46 38.3958C20.4394 38.3486 20.4288 38.2976 20.4288 38.2461C20.4288 38.1946 20.4394 38.1436 20.46 38.0964C20.4807 38.0492 20.5108 38.0068 20.5486 37.9718C20.5864 37.9368 20.631 37.91 20.6797 37.893C20.7283 37.8761 20.7799 37.8694 20.8313 37.8733H22.0321L21.9969 37.5984C21.9969 37.5984 21.9969 37.5808 21.9969 37.572C21.9872 37.5074 21.9732 37.4435 21.9551 37.3807C21.935 37.3134 21.9093 37.2479 21.8782 37.185C21.8127 37.0379 21.7069 36.9125 21.573 36.8234C21.439 36.7342 21.2825 36.685 21.1216 36.6813C21.058 36.6818 20.9945 36.6892 20.9325 36.7033C20.8744 36.7178 20.8183 36.7392 20.7653 36.7671C20.6174 36.8527 20.4928 36.9732 20.4023 37.1181C20.3118 37.2631 20.2582 37.428 20.2463 37.5984L20.0132 39.6745C20.0078 39.723 19.993 39.77 19.9695 39.8128C19.946 39.8556 19.9143 39.8933 19.8762 39.9239C19.8381 39.9544 19.7944 39.9771 19.7475 39.9908C19.7006 40.0044 19.6515 40.0086 19.603 40.0033C19.5545 39.998 19.5075 39.9831 19.4647 39.9596C19.4219 39.9361 19.3842 39.9044 19.3537 39.8663C19.3232 39.8282 19.3004 39.7845 19.2868 39.7376C19.2732 39.6908 19.2689 39.6417 19.2742 39.5931L19.5074 37.5171C19.5321 37.2233 19.6292 36.9401 19.79 36.693C19.9508 36.4459 20.1703 36.2424 20.4288 36.1007C20.5338 36.048 20.6445 36.0074 20.7587 35.9798C20.8777 35.9521 20.9995 35.9381 21.1216 35.938C21.4212 35.9396 21.714 36.0268 21.9657 36.1893C22.2174 36.3518 22.4175 36.5828 22.5423 36.8551C22.5933 36.957 22.6359 37.0629 22.6699 37.1718C22.6985 37.272 22.7199 37.3742 22.7337 37.4775C22.7357 37.4884 22.7357 37.4996 22.7337 37.5105L22.9888 39.5843Z" fill="#1D1D1B"/>
<path d="M24.1302 39.6261C24.1342 39.6775 24.1274 39.7291 24.1105 39.7778C24.0936 39.8264 24.0667 39.871 24.0317 39.9088C23.9967 39.9466 23.9543 39.9768 23.9071 39.9974C23.8599 40.018 23.8089 40.0287 23.7574 40.0287C23.7059 40.0287 23.655 40.018 23.6078 39.9974C23.5606 39.9768 23.5181 39.9466 23.4831 39.9088C23.4481 39.871 23.4213 39.8264 23.4044 39.7778C23.3874 39.7291 23.3807 39.6775 23.3847 39.6261V36.5472C23.3824 36.526 23.3824 36.5046 23.3847 36.4834C23.3895 36.4421 23.3991 36.4015 23.4132 36.3625L23.444 36.2965C23.5084 36.1821 23.6125 36.0952 23.7365 36.0524L23.7871 36.0392H23.8267H23.9147H23.9257C24.002 36.0424 24.0768 36.0621 24.1447 36.0971C24.2127 36.132 24.2723 36.1813 24.3193 36.2415L26.2987 38.7772V36.3031C26.2987 36.2039 26.3381 36.1088 26.4082 36.0387C26.4783 35.9686 26.5734 35.9292 26.6725 35.9292C26.7717 35.9292 26.8668 35.9686 26.9369 36.0387C27.007 36.1088 27.0464 36.2039 27.0464 36.3031V39.382C27.0461 39.4601 27.0283 39.5372 26.9945 39.6075C26.9606 39.6779 26.9115 39.7399 26.8507 39.7889C26.8268 39.809 26.801 39.8266 26.7737 39.8417C26.759 39.8503 26.7435 39.8577 26.7275 39.8637L26.6967 39.8769C26.5656 39.9227 26.4217 39.9148 26.2965 39.8549L26.2481 39.8307C26.222 39.8142 26.1976 39.795 26.1755 39.7735C26.1583 39.7585 26.1421 39.7423 26.1271 39.7251L26.1139 39.7097L24.1302 37.1652V39.6261Z" fill="#1D1D1B"/>
<path d="M29.9626 39.2523C30.0618 39.2523 30.1569 39.2917 30.227 39.3618C30.2971 39.4319 30.3365 39.527 30.3365 39.6261C30.3365 39.7253 30.2971 39.8204 30.227 39.8905C30.1569 39.9606 30.0618 40 29.9626 40H28.863C28.4728 40 28.0985 39.845 27.8226 39.5691C27.5467 39.2932 27.3917 38.9189 27.3917 38.5287V37.4049C27.3929 37.015 27.5482 36.6415 27.8239 36.3658C28.0996 36.0901 28.4731 35.9348 28.863 35.9336H29.9626C30.0618 35.9336 30.1569 35.973 30.227 36.0431C30.2971 36.1132 30.3365 36.2083 30.3365 36.3075C30.3365 36.4066 30.2971 36.5017 30.227 36.5718C30.1569 36.642 30.0618 36.6813 29.9626 36.6813H28.863C28.6691 36.6836 28.484 36.7627 28.3484 36.9013C28.2795 36.9678 28.2246 37.0474 28.1869 37.1354C28.1491 37.2233 28.1293 37.318 28.1284 37.4137V38.5375C28.1296 38.7302 28.2067 38.9147 28.3429 39.051C28.4792 39.1872 28.6637 39.2643 28.8564 39.2655H29.956L29.9626 39.2523Z" fill="#1D1D1B"/>
<path d="M32.1245 36.6748C31.8616 36.6737 31.6085 36.7746 31.4185 36.9563C31.3284 37.041 31.2563 37.1432 31.2068 37.2566C31.1573 37.37 31.1313 37.4923 31.1304 37.616V38.3132C31.1309 38.4368 31.1565 38.559 31.2056 38.6724C31.2548 38.7858 31.3265 38.8881 31.4163 38.973C31.6064 39.1546 31.8594 39.2555 32.1223 39.2545C32.3851 39.2555 32.6382 39.1546 32.8282 38.973C32.9184 38.8882 32.9904 38.786 33.0399 38.6726C33.0894 38.5592 33.1154 38.4369 33.1163 38.3132V37.616C33.1153 37.4925 33.0895 37.3705 33.0404 37.2571C32.9913 37.1438 32.9199 37.0415 32.8304 36.9563C32.6392 36.7751 32.3857 36.6743 32.1223 36.6748M32.1223 35.9292C32.5777 35.9276 33.016 36.1026 33.345 36.4174C33.5076 36.5715 33.6373 36.757 33.7261 36.9627C33.8149 37.1683 33.8611 37.3898 33.8619 37.6138V38.311C33.8611 38.535 33.8149 38.7565 33.7261 38.9622C33.6373 39.1678 33.5076 39.3533 33.345 39.5074C33.016 39.8223 32.5777 39.9973 32.1223 39.9956C31.6668 39.9973 31.2285 39.8223 30.8995 39.5074C30.7376 39.3529 30.6086 39.1673 30.5201 38.9617C30.4317 38.7561 30.3857 38.5348 30.3849 38.311V37.6138C30.3857 37.39 30.4317 37.1687 30.5201 36.9632C30.6086 36.7576 30.7376 36.572 30.8995 36.4174C31.2285 36.1026 31.6668 35.9276 32.1223 35.9292Z" fill="#1D1D1B"/>
<path d="M16.391 36.6769V39.2523H17.8337C17.8954 39.2523 17.9565 39.2401 18.0135 39.2164C18.0705 39.1927 18.1222 39.158 18.1658 39.1143C18.2093 39.0706 18.2437 39.0186 18.2672 38.9616C18.2906 38.9045 18.3025 38.8433 18.3022 38.7816C18.3024 38.6643 18.2584 38.5512 18.179 38.4649L18.1636 38.4517C18.1209 38.4074 18.0696 38.372 18.013 38.3479C17.9563 38.3237 17.8954 38.3111 17.8337 38.311H17.3367C17.2375 38.311 17.1425 38.2716 17.0723 38.2015C17.0022 38.1314 16.9628 38.0363 16.9628 37.9371C16.9628 37.838 17.0022 37.7429 17.0723 37.6727C17.1425 37.6026 17.2375 37.5632 17.3367 37.5632H17.506C17.6121 37.5539 17.7116 37.508 17.7876 37.4335C17.8294 37.3925 17.8626 37.3435 17.8853 37.2895C17.9079 37.2355 17.9196 37.1776 17.9195 37.119C17.9195 37.0023 17.8732 36.8905 17.7907 36.808C17.7082 36.7255 17.5963 36.6791 17.4797 36.6791H16.391V36.6769ZM15.6433 37.9415V36.3185C15.6431 36.2677 15.6536 36.2175 15.6741 36.1711C15.6947 36.1231 15.7238 36.0792 15.7598 36.0414C15.8265 35.9776 15.914 35.9401 16.0062 35.9358H17.4687C17.7842 35.9358 18.0868 36.0611 18.31 36.2843C18.5331 36.5074 18.6585 36.81 18.6585 37.1256C18.6578 37.3496 18.5945 37.569 18.4759 37.759C18.5554 37.806 18.6292 37.8621 18.6958 37.9261L18.72 37.9525C18.9335 38.1775 19.0524 38.4759 19.0521 38.786C19.0515 39.1078 18.9235 39.4163 18.6959 39.6438C18.4684 39.8713 18.1599 39.9994 17.8381 40H16.0172C15.918 40 15.8229 39.9606 15.7528 39.8905C15.6827 39.8204 15.6433 39.7253 15.6433 39.6261V37.9415Z" fill="#1D1D1B"/>
</g>
<defs>
<clipPath id="clip0_669_582">
<rect width="33.8641" height="40" fill="white"/>
</clipPath>
</defs>
</svg>
