<svg width="40" height="40" viewBox="0 0 40 40" fill="none" xmlns="http://www.w3.org/2000/svg">
<rect x="0.75" y="0.75" width="38.5" height="38.5" rx="19.25" fill="white"/>
<rect x="0.75" y="0.75" width="38.5" height="38.5" rx="19.25" stroke="#DABDC6" stroke-width="1.5"/>
<path d="M20 16.5C20 18.9853 17.9853 21 15.5 21C13.0147 21 11 18.9853 11 16.5C11 14.0147 13.0147 12 15.5 12C17.9853 12 20 14.0147 20 16.5Z" stroke="#DABDC6" stroke-width="2" stroke-linecap="round" stroke-linejoin="round"/>
<path d="M25 25C25 26.6569 23.6569 28 22 28C20.3431 28 19 26.6569 19 25C19 23.3431 20.3431 22 22 22C23.6569 22 25 23.3431 25 25Z" stroke="#DABDC6" stroke-width="2" stroke-linecap="round" stroke-linejoin="round"/>
<path d="M28 17C28 18.1046 27.1046 19 26 19C24.8954 19 24 18.1046 24 17C24 15.8954 24.8954 15 26 15C27.1046 15 28 15.8954 28 17Z" stroke="#DABDC6" stroke-width="2" stroke-linecap="round" stroke-linejoin="round"/>
</svg>
