<svg width="40" height="40" viewBox="0 0 40 40" fill="none" xmlns="http://www.w3.org/2000/svg">
<rect x="0.75" y="0.75" width="38.5" height="38.5" rx="19.25" fill="white"/>
<rect x="0.75" y="0.75" width="38.5" height="38.5" rx="19.25" stroke="#DABDC6" stroke-width="1.5"/>
<path d="M22 23C21.3281 25.2188 20.2091 27 18 27C15.7909 27 14 25.2091 14 23H22ZM22 23L24.5442 15.3675C24.8164 14.5509 25.5807 14 26.4415 14H26.7639C27.5215 14 28.214 14.428 28.5528 15.1056L29 16M15 20L14.4142 19.4142C13.6332 18.6332 13.6332 17.3668 14.4142 16.5858L14.8406 16.1594C15.5148 15.4852 15.6193 14.429 15.0905 13.6358L14 12M19 20L18.4142 19.4142C17.6332 18.6332 17.6332 17.3668 18.4142 16.5858L18.8406 16.1594C19.5148 15.4852 19.6193 14.429 19.0905 13.6358L18 12" stroke="#DABDC6" stroke-width="2" stroke-linecap="round" stroke-linejoin="round"/>
</svg>
