<svg width="40" height="40" viewBox="0 0 40 40" fill="none" xmlns="http://www.w3.org/2000/svg">
<rect x="0.75" y="0.75" width="38.5" height="38.5" rx="19.25" fill="white"/>
<rect x="0.75" y="0.75" width="38.5" height="38.5" rx="19.25" stroke="#DABDC6" stroke-width="1.5"/>
<path d="M11 14L14.1056 12.4472C14.6686 12.1657 15.3314 12.1657 15.8944 12.4472L17.3167 13.1584C19.0059 14.0029 20.9941 14.0029 22.6833 13.1584L24.1056 12.4472C24.6686 12.1657 25.3314 12.1657 25.8944 12.4472L29 14M11 18.5L14.1056 16.9472C14.6686 16.6657 15.3314 16.6657 15.8944 16.9472L17.3167 17.6584C19.0059 18.5029 20.9941 18.5029 22.6833 17.6584L24.1056 16.9472C24.6686 16.6657 25.3314 16.6657 25.8944 16.9472L29 18.5M11 23L14.1056 21.4472C14.6686 21.1657 15.3314 21.1657 15.8944 21.4472L17.3167 22.1584C19.0059 23.0029 20.9941 23.0029 22.6833 22.1584L24.1056 21.4472C24.6686 21.1657 25.3314 21.1657 25.8944 21.4472L29 23M11 27.5L14.1056 25.9472C14.6686 25.6657 15.3314 25.6657 15.8944 25.9472L17.3167 26.6584C19.0059 27.5029 20.9941 27.5029 22.6833 26.6584L24.1056 25.9472C24.6686 25.6657 25.3314 25.6657 25.8944 25.9472L29 27.5" stroke="#DABDC6" stroke-width="2" stroke-linecap="round" stroke-linejoin="round"/>
</svg>
