<svg width="254" height="114" viewBox="0 0 254 114" fill="none" xmlns="http://www.w3.org/2000/svg">
<ellipse cx="27.4984" cy="45.7689" rx="14.5765" ry="9.1103" stroke="white" stroke-width="3"/>
<path d="M15.6543 51.235L20.2094 59.8623C22.0315 62.9357 32.9639 62.9357 34.7859 59.8623L39.3411 51.235" stroke="white" stroke-width="3"/>
<path d="M9.2775 49.4128C7.34454 49.4128 5.49075 48.9329 4.12393 48.0786C2.75712 47.2244 1.98926 46.0657 1.98926 44.8576C1.98926 43.6495 2.75712 42.4909 4.12394 41.6367C5.49075 40.7824 7.34454 40.3025 9.2775 40.3025" stroke="white" stroke-width="3"/>
<g filter="url(#filter0_d_23_1309)">
<path d="M69.5759 59.2308C68.3303 59.2308 67.583 58.4479 67.583 57.1667V35.334C67.583 34.0529 68.3303 33.27 69.5759 33.27H82.0314C83.1524 33.27 83.8997 33.9461 83.8997 34.9959C83.8997 36.0458 83.1346 36.7219 82.0314 36.7219H71.5688V44.8358H81.0883C82.1559 44.8358 82.8855 45.4941 82.8855 46.5084C82.8855 47.5404 82.1559 48.1988 81.0883 48.1988H71.5688V57.1667C71.5688 58.4479 70.8036 59.2308 69.5759 59.2308Z" fill="white"/>
<path d="M94.8242 59.302C89.1837 59.302 85.8741 55.7254 85.8741 49.6756C85.8741 43.7326 89.2549 39.8892 94.5573 39.8892C99.5395 39.8892 102.974 43.4835 102.974 48.5902C102.974 49.8358 102.262 50.5475 101.07 50.5475H89.7531V50.6365C89.7531 54.0528 91.6748 56.1881 94.7353 56.1881C96.8349 56.1881 98.1516 55.4585 99.5751 53.519C99.9844 53.0386 100.376 52.8429 100.927 52.8429C101.853 52.8429 102.529 53.4479 102.529 54.4087C102.529 54.7112 102.422 55.0671 102.262 55.4407C101.034 57.8963 98.3118 59.302 94.8242 59.302ZM89.7709 47.8607H99.1303C99.0413 44.9247 97.2086 42.9853 94.5395 42.9853C91.8883 42.9853 89.9666 44.9425 89.7709 47.8607Z" fill="white"/>
<path d="M112.172 59.2664C108.507 59.2664 105.927 56.9888 105.927 53.6258C105.927 50.3518 108.453 48.3411 112.884 48.092L118.026 47.7895V46.3482C118.026 44.2664 116.621 43.0208 114.272 43.0208C112.421 43.0208 111.194 43.6792 110.126 45.3874C109.735 45.9568 109.236 46.2059 108.56 46.2059C107.599 46.2059 106.905 45.5653 106.905 44.6045C106.905 44.213 107.012 43.786 107.243 43.3589C108.222 41.2415 111.051 39.8892 114.414 39.8892C118.952 39.8892 121.852 42.2913 121.852 46.0457V57.3447C121.852 58.5546 121.087 59.2842 120.001 59.2842C118.934 59.2842 118.204 58.5902 118.169 57.4514V55.8678H118.08C116.994 57.9496 114.61 59.2664 112.172 59.2664ZM113.222 56.2237C115.909 56.2237 118.026 54.3731 118.026 51.9354V50.4585L113.4 50.7432C111.105 50.9034 109.806 51.9176 109.806 53.519C109.806 55.1561 111.176 56.2237 113.222 56.2237Z" fill="white"/>
<path d="M133.221 59.302C129.538 59.302 126.833 57.7895 125.944 55.4941C125.819 55.2094 125.784 54.9425 125.784 54.6934C125.784 53.7326 126.478 53.1632 127.438 53.1632C128.079 53.1632 128.631 53.4657 129.111 54.1774C130.072 55.6899 131.193 56.366 133.417 56.366C135.606 56.366 137.083 55.423 137.083 53.8749C137.083 52.6472 136.353 51.9888 134.342 51.5084L131.389 50.8144C127.759 49.9603 125.979 48.181 125.979 45.5119C125.979 42.1312 128.915 39.8892 133.364 39.8892C136.744 39.8892 139.52 41.6151 140.054 43.8215C140.09 44.0351 140.125 44.213 140.125 44.3909C140.125 45.245 139.591 45.8144 138.631 45.8144C138.008 45.8144 137.456 45.6009 137.083 44.9959C136.246 43.5724 135.107 42.8251 133.221 42.8251C131.157 42.8251 129.734 43.8393 129.734 45.2984C129.734 46.4728 130.641 47.2913 132.616 47.7539L135.517 48.4301C139.449 49.3376 140.962 50.7432 140.962 53.519C140.962 56.9888 137.848 59.302 133.221 59.302Z" fill="white"/>
<path d="M145.783 54.4621V43.2699H144.431C143.434 43.2699 142.829 42.7006 142.829 41.7575C142.829 40.7966 143.434 40.2272 144.431 40.2272H145.783V37.4515C145.783 36.2237 146.548 35.4052 147.722 35.4052C148.879 35.4052 149.644 36.2237 149.644 37.4515V40.2272H151.833C152.829 40.2272 153.434 40.8144 153.434 41.7575C153.434 42.7006 152.829 43.2699 151.833 43.2699H149.644V53.608C149.644 55.1027 150.16 55.7788 151.548 55.8856L151.85 55.9034C152.954 56.0101 153.505 56.455 153.505 57.3625C153.505 58.519 152.616 59.1062 150.729 59.1062H150.534C147.384 59.1062 145.783 57.5582 145.783 54.4621Z" fill="white"/>
<path d="M159.163 59.2842C158.042 59.2842 157.241 58.519 157.241 57.2557V34.9604C157.241 33.697 158.042 32.9319 159.163 32.9319C160.284 32.9319 161.085 33.697 161.085 34.9604V57.2557C161.085 58.519 160.284 59.2842 159.163 59.2842Z" fill="white"/>
<path d="M168.077 65.9212C166.297 65.9212 165.319 65.2628 165.319 64.0706C165.319 63.2521 165.888 62.7183 166.813 62.7183C167.223 62.7183 167.365 62.7361 167.81 62.7361C168.878 62.7361 169.963 62.1489 170.657 60.2272L171.013 59.1418L164.749 42.7539C164.607 42.3625 164.536 41.971 164.536 41.6685C164.536 40.6187 165.372 39.8892 166.493 39.8892C167.454 39.8892 168.006 40.2984 168.344 41.366L173.112 55.4585H173.166L177.952 41.366C178.273 40.3162 178.806 39.8892 179.785 39.8892C180.888 39.8892 181.653 40.6187 181.653 41.6507C181.653 41.9532 181.582 42.3447 181.458 42.7183L174.963 59.8891C173.308 64.3909 171.547 65.9212 168.077 65.9212Z" fill="white"/>
<path d="M194.926 38.3767C194.926 40.3162 195.744 41.4194 197.061 41.4194C197.915 41.4194 198.574 41.0102 199.036 40.2095C199.339 39.6934 199.659 39.4443 200.282 39.4443C200.958 39.4443 201.474 39.8536 201.474 40.5653C201.474 40.9568 201.332 41.3482 201.118 41.7041C200.495 42.7361 199.107 43.5902 197.026 43.5902C194.001 43.5902 192.079 41.6507 192.079 38.3767C192.079 35.1561 193.912 33.2166 196.919 33.1454C198.858 33.1454 200.371 33.9817 201.011 35.0315C201.243 35.4052 201.367 35.7789 201.367 36.1703C201.367 36.8999 200.869 37.3091 200.175 37.3091C199.552 37.3091 199.25 37.06 198.929 36.5262C198.485 35.7255 197.915 35.334 197.061 35.334C195.744 35.334 194.926 36.4728 194.926 38.3767Z" fill="white"/>
<path d="M209 43.608C205.957 43.608 204.018 41.6685 204.018 38.3767C204.018 35.1205 205.975 33.1632 209 33.1632C212.025 33.1632 214 35.1027 214 38.3767C214 41.6863 212.043 43.608 209 43.608ZM209 41.4728C210.299 41.4728 211.135 40.3696 211.135 38.3767C211.135 36.4194 210.299 35.2806 209 35.2806C207.701 35.2806 206.865 36.4194 206.865 38.3767C206.865 40.3696 207.683 41.4728 209 41.4728Z" fill="white"/>
</g>
<defs>
<filter id="filter0_d_23_1309" x="27.583" y="0.931885" width="226.417" height="112.989" filterUnits="userSpaceOnUse" color-interpolation-filters="sRGB">
<feFlood flood-opacity="0" result="BackgroundImageFix"/>
<feColorMatrix in="SourceAlpha" type="matrix" values="0 0 0 0 0 0 0 0 0 0 0 0 0 0 0 0 0 0 127 0" result="hardAlpha"/>
<feOffset dy="8"/>
<feGaussianBlur stdDeviation="20"/>
<feComposite in2="hardAlpha" operator="out"/>
<feColorMatrix type="matrix" values="0 0 0 0 0 0 0 0 0 0 0 0 0 0 0 0 0 0 1 0"/>
<feBlend mode="normal" in2="BackgroundImageFix" result="effect1_dropShadow_23_1309"/>
<feBlend mode="normal" in="SourceGraphic" in2="effect1_dropShadow_23_1309" result="shape"/>
</filter>
</defs>
</svg>
